Patient4_TMGait_0pt8_01_left_05_EMG.mot
version=1
nRows=30
nColumns=33
inDegrees=no
endheader
time	1LAddLong	2LGlutMax	3LGlutMed	4LIliopsoas	5LSemiMemb	6LBicFemLong	7LRecFem	8LVastMed	9LVastLat	10LGasMed	11LTibAnt	12lTibPost	13LPeroneusLong	14LSol	15LExtDigLong	16LFlexDigLong	17RAddLong	18RGlutMax	19RGlutMed	20RIliopsoas	21RSemiMemb	22RBicFemLong	23RRecFem	24RVastMed	25RVastLat	26RGasMed	27RTibAnt	28RTibPost	29RPeroneusLong	30RSol	31RExtDigLong	32RFlexDigLong
4.73	-0.007477	-2.3445	-0.083313	0.004578	-0.00351	0.018616	0.079498	0.025024	-0.22995	0.002441	0.23529	0.015717	-0.1207	-0.079651	0.70007	-0.008698	0.048065	0.32669	-0.40985	0.41168	-0.16174	-0.12619	-0.028992	0	-0.26367	-0.019989	0.14191	0.003052	-0.013885	-0.043945	-0.000763	0.000763
4.731	-0.014343	-2.3404	-0.07309	-0.019836	-0.004425	0.022888	0.086365	0.023193	-0.23804	-0.012817	0.1973	0.008087	-0.029755	-0.059204	-0.24216	-0.020142	0.040131	0.41565	-0.3154	0.38498	-0.18448	-0.14038	-0.025787	-0.060425	-0.61386	-0.018005	0.10742	0.002899	0.078278	-0.1181	0.000763	0.004578
4.732	-0.008545	-2.2792	-0.067139	-0.008392	-0.00473	0.025482	0.10422	0.01297	-0.25192	-0.004883	0.11231	-0.001373	0.007629	0.040131	-0.27985	-0.008087	0.039825	0.5127	0.086517	0.18234	-0.010376	0.20096	0.11276	0.083313	-0.56992	-0.019073	0.1947	-0.001068	0.057678	-0.18097	-0.011444	0.001984
4.733	-0.005341	-2.1648	-0.071411	0.00885	0.003052	0.034637	0.10086	0.009766	-0.24933	0.010376	0.026245	0.0177	-0.03418	0.023499	-0.050812	-0.007629	0.025024	0.51926	-0.31708	0.12451	0.34851	-0.066833	0.28473	-0.086212	-0.69366	-0.002747	0.39658	0.003662	-0.10269	-0.20691	-0.008545	0.000763
4.734	0	-2.0441	-0.079193	0.007782	-0.009003	0.031433	0.086365	0.013885	-0.2562	-0.017853	-0.21316	0.016174	0.039978	-0.016327	-0.47485	-0.013885	0.036011	0.58411	-0.68268	0.02243	0.32867	-0.32288	0.15488	-0.18463	-0.65124	0.002136	0.39169	-0.001678	-0.45166	-0.15137	-0.001678	-0.002289
4.735	0.007019	-1.9254	-0.068512	-0.002441	-0.002136	0.025787	0.041351	0.015564	-0.26611	0.008087	-0.16464	0.009155	0.061646	0.003357	-0.16739	-0.018768	0.021973	0.54779	-0.74799	-0.040131	-0.11215	-0.10941	0.14175	-0.14023	-0.33814	-0.011292	0.30609	-0.000305	-0.53223	-0.16144	-0.005341	-0.005188
4.736	-0.001984	-1.7068	-0.068054	-0.001373	-0.00473	0.020905	0.045776	0.0177	-0.26672	-0.002136	-0.17944	0.015106	0.076294	-0.02121	-0.25421	-0.014954	-0.013428	0.55801	0.045929	-0.084839	-0.3215	0.13886	0.28625	-0.08316	-0.24689	-0.024414	0.18921	-0.000458	-1.06	-0.14694	-0.005646	-0.004883
4.737	-0.006561	-1.4777	-0.061798	0.019226	-0.001678	0.022125	0.12833	0.007172	-0.27023	-0.035248	-0.21332	0.020294	0.11414	-0.001831	-0.39093	-0.00412	-0.040436	0.58456	0.76019	-0.099335	-0.61188	0.16495	0.2356	0.028076	-0.19028	-0.038452	0.13077	-0.000916	-0.17944	-0.044098	-0.011139	-0.001373
4.738	-0.003967	-1.2093	-0.03891	0.010223	-0.001221	0.023193	0.15198	0.009003	-0.27161	-0.021057	-0.18143	0.013428	0.12924	0.006104	-0.21973	-0.016479	-0.056763	0.57022	0.77087	0.019836	-0.34409	0.001526	0.1767	-0.012817	-0.17456	-0.055237	0.26276	-0.011139	0.50384	0.090027	-0.003815	-0.003662
4.739	-0.003357	-0.93307	-0.058594	0.009308	-0.001526	0.007019	0.12344	0.021973	-0.26459	-0.019836	-0.21194	0.013275	0.1001	0.003204	0.12802	-0.000763	-0.049133	0.44098	0.36529	0.08316	0.13931	-0.14252	0.16007	-0.000458	-0.053711	-0.010071	0.090942	-0.008698	0.4129	0.040131	-0.001068	-0.003662
4.74	-0.00061	-0.64712	-0.071869	0.009613	0.005493	0.030212	0.12589	0.006104	-0.26474	-0.021973	-0.088654	0.01297	0.061798	-0.027466	-0.006256	0.001526	-0.035095	0.3067	0.089874	0.047913	0.020599	-0.12924	0.20752	0.002594	-0.091095	0.039978	-0.74356	-0.01236	0.30319	-0.25497	-0.001831	-0.011292
4.741	0.002136	-0.34149	-0.07843	0.007629	0.000763	0.014496	0.097656	0.011749	-0.28061	-0.014038	0.22171	0.004578	-0.063782	-0.058441	-0.032959	0.001373	-0.017853	0.42541	0.093536	0.040283	0.017242	-0.11688	0.27451	-0.004578	-0.112	-0.002136	-0.31845	0.004578	0.2179	-0.29236	-0.001678	-0.016022
4.742	-0.005035	-0.049438	-0.077667	0.024414	-0.010834	-0.011139	0.058594	0.012054	-0.29114	0.014648	0.34546	0.003815	-0.16525	-0.023346	-0.10773	0.00412	-0.011902	0.45136	0.55466	-0.001526	0.03952	-0.01358	0.06012	-0.056458	-0.12314	-0.009613	-0.029755	0.000305	-0.087738	-0.54321	-0.002747	-0.020447
4.743	-0.013123	0.2063	-0.067291	0.014801	-0.000763	-0.014801	0.069275	0.011902	-0.29495	0.015259	0.19638	0.014191	-0.12421	-0.007782	-0.13306	0.008545	0.003967	0.44708	0.48019	-0.039673	0.02533	-0.038757	-0.005341	0.002289	0.10834	-0.014343	0.06134	-0.000305	-0.00351	-0.39795	-0.002594	-0.018616
4.744	0.001221	0.39063	-0.0737	0.032806	0.002136	-0.00946	0.050964	0.014191	-0.28656	-0.00412	-0.12955	0.014038	-0.032349	-0.103	-0.20096	-0.003052	0.022888	0.44067	0.48172	-0.057068	-0.040588	-0.22232	0.1622	-0.003204	0.31815	-0.016479	0.068054	0.000305	0.12634	0.47241	0.000916	-0.020599
4.745	0.005188	0.61737	-0.075531	0.019531	-0.003357	-0.016022	0.054016	0.021057	-0.28839	-0.023499	-0.10834	0.007324	0.06012	-0.15656	-0.020447	0.006409	0.035553	0.47348	-0.054016	-0.04303	-0.059204	-0.27145	0.16266	-0.031281	0.28839	-0.005341	0.19333	-0.000763	0.096436	0.86014	-0.002899	0.000305
4.746	0.008698	0.84793	-0.064545	0.014801	0.00351	-0.011139	0.062714	0.016479	-0.28153	-0.023193	0.064087	0.001984	0.024567	-0.088806	0.29175	0.011597	0.031891	0.48966	-0.1445	-0.027924	-0.027313	-0.19669	-0.16892	-0.074768	0.41977	-0.008087	0.22263	-0.005341	0.095062	0.44144	-0.005493	0.000916
4.747	0.018158	1.0176	-0.059662	0.001831	0.003052	-0.017395	0.032654	0.014191	-0.29755	-0.002747	0.075073	0.014191	-0.016785	-0.013123	0.25559	0.000916	-0.007477	0.46829	-0.042725	-0.069122	0.032501	-0.11948	-0.028381	0.021667	0.62317	-0.003815	0.29663	-0.005493	0.03067	0.15182	-0.010223	0.008698
4.748	0.012207	1.1703	-0.054321	-0.006561	0.000763	0.010834	0.039825	0.013428	-0.32135	-0.014343	0.009003	0.005035	-0.016632	0.075073	0.18402	-0.016632	0.007935	0.37674	-0.063477	-0.077667	-0.093079	-0.10864	0.21957	-0.023193	0.44449	-0.013733	0.22415	0.015564	-0.13016	-0.073547	-0.011292	0.003052
4.749	0.007477	1.2547	-0.060883	0.002594	0.00351	-0.001984	0.032654	0.004883	-0.31845	-0.019989	-0.16617	0.000916	0.012817	0.069427	-0.083618	0.007477	-0.014038	0.29968	-0.078888	-0.054321	-0.12573	-0.042114	0.089874	-0.14511	0.3508	-0.02182	-0.24643	0.029907	-0.2034	-0.29129	-0.003357	-0.00351
4.75	0.007935	1.2442	-0.062714	-0.001221	0.003967	-0.003662	0.022125	0.019379	-0.32105	-0.02533	-0.016632	0.00351	0.028534	0.045471	-0.16571	0.007629	-0.03067	0.28473	0.19562	-0.016327	-0.15427	0.033112	0.073395	-0.14328	0.24094	-0.012512	-0.55222	-0.027008	-0.14847	-0.1593	-0.002136	0.004883
4.751	0.005035	1.2477	-0.068054	-0.006866	0.007019	-0.005646	0.025635	0.00824	-0.34134	-0.001526	-0.10239	0.006104	0.00885	-0.006714	-0.16174	0.010071	-0.016785	0.24841	0.28824	0.00473	0.046082	0.000458	0.016785	-0.09201	0.083618	-0.005798	-0.38788	-0.28549	-0.014191	-0.12634	-0.003357	0.006409
4.752	0.00412	1.1998	-0.076599	0.001221	-0.001526	0.015106	0.022736	0.009155	-0.3598	0.005493	-0.095673	0.004578	-0.023499	-0.081482	-0.17212	0.010681	-0.016785	0.1915	0.26047	0.021515	0.29663	-0.04303	-0.11124	0.001984	-0.084839	0.007477	0.27527	-0.084534	0.20233	-0.22095	-0.00351	0.010223
4.753	-0.003357	1.1792	-0.068207	0.004883	0.002747	0.017395	0.016479	0.007782	-0.38177	-0.002747	-0.036011	0.018005	-0.03479	-0.18005	-0.011292	0.008698	0.002441	0.14099	-0.03891	0.1767	0.22873	-0.121	-0.056915	-0.064087	-0.30289	0.035553	0.11993	0.24765	0.38147	-0.32257	-0.002899	0.018768
4.754	-0.001984	1.1507	-0.048065	0.003357	0.006714	0.021667	0.019989	0.005493	-0.40482	-0.031586	0.055695	-0.000153	-0.016479	-0.1149	0.087891	0.027618	0.006104	0.16571	-0.064545	0.1767	0.11169	-0.11643	0.15167	-0.069427	-0.54627	0.021973	0.1857	0.10651	0.072479	-0.29205	-0.002899	0.007324
4.755	0.005646	1.1125	-0.068359	-0.003815	0.002747	0.009918	0.002594	0.016937	-0.42541	-0.023499	0.11902	0.009613	-0.028076	0.020905	0.15457	0.020905	0.005035	0.25559	0.18188	0.12711	0.058441	-0.10315	0.092621	0.021057	-0.37659	0.004578	0.044556	0.022278	-0.11719	-0.14618	0.002594	0.004578
4.756	-0.002594	1.0381	-0.070038	-0.004883	0.004578	0.002899	0.003204	0.009003	-0.45273	-0.023193	0.12894	0.006866	-0.000916	0.046997	0.17883	0.019836	-0.008392	0.2536	0.22278	0.13214	0.018616	-0.082245	-0.22385	-0.010223	0.061951	-0.006409	-0.48065	0.02594	-0.061035	-0.090485	-0.001984	-0.006256
4.757	0.002747	1.0245	-0.039368	-0.020294	0.003967	0.005798	-0.011444	0.008392	-0.48187	-0.032196	0.055084	0.006409	0.091553	0.032806	0.12009	0.00946	-0.005493	0.30441	0.007477	0.14816	-0.011902	-0.097046	-0.20676	-0.22492	0.063324	-0.001373	-1.0191	0.010681	-0.016479	-0.19898	-0.002289	-0.006714
4.758	-0.000153	1.0086	0.022888	-0.00473	0.002289	0.011597	-0.006714	0.009003	-0.49652	-0.012665	-0.03418	0.004425	0.071564	-0.003357	0.065613	0.013275	-0.007935	0.36179	0.014343	0.066833	-0.011749	-0.11749	-0.034332	-0.26367	-0.23987	0.00351	-0.54718	0.005341	0.14023	-0.25436	-0.003967	-0.003357
4.759	0.001526	0.91995	0.001526	0.013123	0.014801	0.005341	-0.000916	0.010223	-0.51209	0.003052	-0.030212	0.007629	0.033569	-0.090027	0.086212	0.006866	-0.027313	0.37842	-0.022736	0.021362	0.031433	-0.071869	-0.37323	-0.062561	-0.13855	-0.005341	-0.045319	-0.001526	-0.081024	-0.19211	-0.003052	-0.004883
